<svg width="48" height="48" viewBox="0 0 48 48" fill="none" xmlns="http://www.w3.org/2000/svg">
<path d="M23.9973 20.6652C22.1611 20.6652 20.6626 22.1638 20.6626 24C20.6626 25.8362 22.1611 27.3348 23.9973 27.3348C25.8335 27.3348 27.332 25.8362 27.332 24C27.332 22.1638 25.8335 20.6652 23.9973 20.6652ZM33.9989 24C33.9989 22.6191 34.0114 21.2506 33.9338 19.8722C33.8563 18.2711 33.4911 16.8502 32.3203 15.6794C31.147 14.5061 29.7286 14.1433 28.1275 14.0658C26.7466 13.9882 25.3782 14.0007 23.9998 14.0007C22.6189 14.0007 21.2505 13.9882 19.8721 14.0658C18.271 14.1433 16.8501 14.5086 15.6793 15.6794C14.5061 16.8527 14.1433 18.2711 14.0658 19.8722C13.9882 21.2531 14.0007 22.6216 14.0007 24C14.0007 25.3784 13.9882 26.7494 14.0658 28.1278C14.1433 29.7289 14.5086 31.1498 15.6793 32.3206C16.8526 33.4939 18.271 33.8567 19.8721 33.9342C21.253 34.0118 22.6214 33.9993 23.9998 33.9993C25.3807 33.9993 26.7491 34.0118 28.1275 33.9342C29.7286 33.8567 31.1495 33.4914 32.3203 32.3206C33.4936 31.1473 33.8563 29.7289 33.9338 28.1278C34.0139 26.7494 33.9989 25.3809 33.9989 24V24ZM23.9973 29.131C21.1579 29.131 18.8664 26.8394 18.8664 24C18.8664 21.1606 21.1579 18.869 23.9973 18.869C26.8367 18.869 29.1282 21.1606 29.1282 24C29.1282 26.8394 26.8367 29.131 23.9973 29.131ZM29.3383 19.8572C28.6754 19.8572 28.14 19.3218 28.14 18.6589C28.14 17.9959 28.6754 17.4606 29.3383 17.4606C30.0013 17.4606 30.5366 17.9959 30.5366 18.6589C30.5368 18.8163 30.5059 18.9722 30.4458 19.1177C30.3856 19.2632 30.2974 19.3954 30.1861 19.5067C30.0748 19.618 29.9426 19.7062 29.7971 19.7664C29.6516 19.8265 29.4957 19.8574 29.3383 19.8572V19.8572Z" fill="white"/>
<rect x="0.5" y="0.5" width="47" height="47" rx="23.5" stroke="#D5B8E4"/>
</svg>
