<svg width="602" height="403" viewBox="0 0 602 403" fill="none" xmlns="http://www.w3.org/2000/svg">
<path d="M594 0.356369H8.25684C3.83856 0.356369 0.256836 3.93808 0.256836 8.35636V394.993C0.256836 399.411 3.83859 402.993 8.25686 402.993H594C598.418 402.993 602 399.411 602 394.993V8.35637C602 3.93809 598.418 0.356369 594 0.356369Z" fill="#E6E6E6"/>
<path d="M584.794 50.8569H17.4639V204.345H584.794V50.8569Z" fill="white"/>
<path d="M274.961 73.0279H162.179C160.192 73.0279 158.582 74.6387 158.582 76.6256C158.582 78.6126 160.192 80.2234 162.179 80.2234H274.961C276.948 80.2234 278.559 78.6126 278.559 76.6256C278.559 74.6387 276.948 73.0279 274.961 73.0279Z" fill="#E6E6E6"/>
<path d="M340.255 99.275H162.179C160.192 99.275 158.582 100.886 158.582 102.873C158.582 104.86 160.192 106.471 162.179 106.471H340.255C342.242 106.471 343.853 104.86 343.853 102.873C343.853 100.886 342.242 99.275 340.255 99.275Z" fill="#682E84"/>
<path d="M305.976 124.003H162.179C160.192 124.003 158.582 125.614 158.582 127.601C158.582 129.588 160.192 131.198 162.179 131.198H305.976C307.963 131.198 309.574 129.588 309.574 127.601C309.574 125.614 307.963 124.003 305.976 124.003Z" fill="#E6E6E6"/>
<path d="M243.131 148.639H162.179C160.192 148.639 158.582 150.25 158.582 152.237C158.582 154.224 160.192 155.834 162.179 155.834H243.131C245.118 155.834 246.728 154.224 246.728 152.237C246.728 150.25 245.118 148.639 243.131 148.639Z" fill="#E6E6E6"/>
<path d="M288.02 173.274H162.179C160.192 173.274 158.582 174.885 158.582 176.872C158.582 178.859 160.192 180.469 162.179 180.469H288.02C290.007 180.469 291.618 178.859 291.618 176.872C291.618 174.885 290.007 173.274 288.02 173.274Z" fill="#E6E6E6"/>
<path d="M118.589 78.473V77.8153C118.589 73.7585 115.3 70.4698 111.244 70.4698C107.187 70.4698 103.898 73.7585 103.898 77.8153V78.473C103.898 82.5299 107.187 85.8186 111.244 85.8186C115.3 85.8186 118.589 82.5299 118.589 78.473Z" fill="#E6E6E6"/>
<path d="M118.589 103.201V102.543C118.589 98.4866 115.3 95.1979 111.244 95.1979C107.187 95.1979 103.898 98.4867 103.898 102.543V103.201C103.898 107.258 107.187 110.547 111.244 110.547C115.3 110.547 118.589 107.258 118.589 103.201Z" fill="#682E84"/>
<path d="M118.589 127.93V127.272C118.589 123.215 115.3 119.927 111.244 119.927C107.187 119.927 103.898 123.215 103.898 127.272V127.93C103.898 131.987 107.187 135.275 111.244 135.275C115.3 135.275 118.589 131.987 118.589 127.93Z" fill="#E6E6E6"/>
<path d="M118.589 152.659V152.001C118.589 147.944 115.3 144.656 111.244 144.656C107.187 144.656 103.898 147.944 103.898 152.001V152.659C103.898 156.716 107.187 160.004 111.244 160.004C115.3 160.004 118.589 156.716 118.589 152.659Z" fill="#E6E6E6"/>
<path d="M118.589 177.388V176.73C118.589 172.673 115.3 169.384 111.244 169.384C107.187 169.384 103.898 172.673 103.898 176.73V177.388C103.898 181.444 107.187 184.733 111.244 184.733C115.3 184.733 118.589 181.444 118.589 177.388Z" fill="#E6E6E6"/>
<path d="M497.455 105.43H464.485C460.067 105.43 456.485 109.012 456.485 113.43V148.593C456.485 153.012 460.067 156.593 464.485 156.593H497.455C501.874 156.593 505.455 153.012 505.455 148.593V113.43C505.455 109.012 501.874 105.43 497.455 105.43Z" fill="#E6E6E6"/>
<path d="M584.794 225.663H17.4639V379.152H584.794V225.663Z" fill="white"/>
<path d="M143.89 247.308V246.65C143.89 242.593 140.602 239.304 136.545 239.304C132.488 239.304 129.199 242.593 129.199 246.65V247.308C129.199 251.364 132.488 254.653 136.545 254.653C140.602 254.653 143.89 251.364 143.89 247.308Z" fill="#E6E6E6"/>
<path d="M118.589 247.308V246.65C118.589 242.593 115.3 239.304 111.244 239.304C107.187 239.304 103.898 242.593 103.898 246.65V247.308C103.898 251.364 107.187 254.653 111.244 254.653C115.3 254.653 118.589 251.364 118.589 247.308Z" fill="#682E84"/>
<path d="M352.988 272.869C348.51 264.949 342.298 258.252 334.86 253.33C327.423 248.407 318.973 245.399 310.206 244.553C301.439 243.707 292.605 245.047 284.43 248.463C276.255 251.879 268.973 257.273 263.183 264.202L259.603 260.933C265.887 253.411 273.791 247.554 282.664 243.845C291.537 240.137 301.126 238.681 310.643 239.6C320.159 240.518 329.331 243.783 337.404 249.127C345.477 254.471 352.22 261.741 357.08 270.339L352.988 272.869Z" fill="#E6E6E6"/>
<path d="M355.228 337.579L351.283 334.807C357.127 325.701 360.388 315.054 360.689 304.095C360.991 293.136 358.321 282.311 352.988 272.869L357.079 270.339C362.87 280.589 365.769 292.341 365.442 304.238C365.114 316.135 361.574 327.694 355.228 337.579Z" fill="#682E84"/>
<path d="M260.098 344.499C250.27 333.032 244.795 318.206 244.704 302.814C244.613 287.422 249.911 272.527 259.602 260.933L263.183 264.202C254.255 274.882 249.374 288.604 249.458 302.784C249.542 316.963 254.586 330.621 263.639 341.185L260.098 344.499Z" fill="#682E84"/>
<path d="M305.085 365.51C296.595 365.503 288.201 363.629 280.45 360.009C272.699 356.389 265.765 351.104 260.098 344.499L263.639 341.185C269.292 347.783 276.314 352.945 284.167 356.275C292.021 359.606 300.499 361.017 308.955 360.402C317.41 359.786 325.62 357.161 332.955 352.725C340.291 348.289 346.56 342.16 351.283 334.807L355.229 337.578C349.709 346.178 342.246 353.225 333.501 358.097C324.755 362.968 314.996 365.514 305.085 365.51Z" fill="#682E84"/>
<path d="M497.455 272.562H464.485C460.067 272.562 456.485 276.144 456.485 280.562V315.725C456.485 320.143 460.067 323.725 464.485 323.725H497.455C501.874 323.725 505.455 320.143 505.455 315.725V280.562C505.455 276.144 501.874 272.562 497.455 272.562Z" fill="#E6E6E6"/>
<path d="M142.828 305.818H109.858C105.439 305.818 101.858 309.4 101.858 313.818V348.981C101.858 353.399 105.439 356.981 109.858 356.981H142.828C147.246 356.981 150.828 353.399 150.828 348.981V313.818C150.828 309.4 147.246 305.818 142.828 305.818Z" fill="#E6E6E6"/>
<path d="M593.743 0H8C3.58172 0 0 3.58172 0 8V26.7087H601.743V8C601.743 3.58172 598.161 0 593.743 0Z" fill="#682E84"/>
<path d="M18.9974 18.6049C21.6142 18.6049 23.7356 16.3886 23.7356 13.6546C23.7356 10.9207 21.6142 8.70438 18.9974 8.70438C16.3806 8.70438 14.2593 10.9207 14.2593 13.6546C14.2593 16.3886 16.3806 18.6049 18.9974 18.6049Z" fill="white"/>
<path d="M36.982 18.6049C39.5988 18.6049 41.7202 16.3886 41.7202 13.6546C41.7202 10.9207 39.5988 8.70438 36.982 8.70438C34.3652 8.70438 32.2439 10.9207 32.2439 13.6546C32.2439 16.3886 34.3652 18.6049 36.982 18.6049Z" fill="white"/>
<path d="M54.9667 18.6049C57.5835 18.6049 59.7048 16.3886 59.7048 13.6546C59.7048 10.9207 57.5835 8.70438 54.9667 8.70438C52.3499 8.70438 50.2285 10.9207 50.2285 13.6546C50.2285 16.3886 52.3499 18.6049 54.9667 18.6049Z" fill="white"/>
</svg>
