<svg width="467" height="400" viewBox="0 0 467 400" fill="none" xmlns="http://www.w3.org/2000/svg">
<path d="M137.242 395.826C144.739 389.487 149.293 379.474 148.098 369.727C146.904 359.979 139.508 351.018 129.914 348.948C120.319 346.878 109.382 352.608 106.468 361.986C104.865 343.906 103.016 325.069 93.4097 309.672C84.711 295.731 69.6447 285.755 53.3162 283.97C36.9878 282.186 19.796 288.926 9.61252 301.822C-0.57094 314.717 -3.06431 333.464 4.06792 348.269C9.32198 359.176 19.0018 367.292 29.1439 373.896C61.9165 395.053 101.223 403.657 139.831 398.124" fill="#F2F2F2"/>
<path d="M25.7594 289.3C39.2324 300.281 51.5924 312.561 62.6608 325.965C79.9827 346.869 93.9998 370.307 104.224 395.461C104.972 397.296 101.994 398.095 101.254 396.281C94.7523 380.377 86.7085 365.148 77.2379 350.815C62.4696 328.423 44.3764 308.415 23.5817 291.479C22.0442 290.226 24.2346 288.058 25.7594 289.3V289.3Z" fill="white"/>
<path d="M142.42 395.826C134.924 389.487 130.37 379.474 131.564 369.727C132.758 359.979 140.155 351.018 149.749 348.948C159.343 346.878 170.28 352.608 173.194 361.986C174.798 343.906 176.646 325.069 186.253 309.672C194.952 295.731 210.018 285.755 226.346 283.97C242.675 282.186 259.867 288.926 270.05 301.822C280.234 314.717 282.727 333.464 275.595 348.269C270.341 359.176 260.661 367.292 250.519 373.896C217.746 395.053 178.44 403.657 139.831 398.124" fill="#F2F2F2"/>
<path d="M253.903 289.3C240.43 300.281 228.07 312.561 217.002 325.965C199.68 346.869 185.663 370.307 175.439 395.461C174.691 397.296 177.669 398.095 178.409 396.281C195.137 355.399 221.842 319.367 256.081 291.479C257.619 290.226 255.428 288.058 253.903 289.3V289.3Z" fill="white"/>
<path d="M164.667 179.939C178.536 179.939 189.779 168.689 189.779 154.812C189.779 140.935 178.536 129.686 164.667 129.686C150.798 129.686 139.555 140.935 139.555 154.812C139.555 168.689 150.798 179.939 164.667 179.939Z" fill="#F2F2F2"/>
<path d="M87.2397 68.1963H260.254V77.6677H109.327C100.453 77.6676 91.6655 79.4165 83.467 82.8144C75.2685 86.2123 67.8192 91.1927 61.5443 97.4712C55.2695 103.75 50.292 111.203 46.8961 119.407C43.5002 127.61 41.7523 136.402 41.7523 145.281V252.887H22.8208C21.984 252.887 21.1814 252.554 20.5897 251.962C19.998 251.37 19.6655 250.567 19.6655 249.73V135.81C19.6655 126.931 21.4134 118.139 24.8093 109.935C28.2052 101.732 33.1827 94.2783 39.4576 87.9998C45.7324 81.7213 53.1817 76.7409 61.3802 73.343C69.5787 69.9451 78.3658 68.1963 87.2397 68.1963Z" fill="#F2F2F2"/>
<path d="M120.518 396.353V252.482H162.642V396.353C162.64 397.32 162.256 398.247 161.573 398.931C160.889 399.614 159.963 399.999 158.996 400H124.164C123.197 399.999 122.271 399.614 121.587 398.931C120.904 398.247 120.519 397.32 120.518 396.353Z" fill="#321640"/>
<path d="M10.7549 249.645V132.657C10.7759 114.033 18.1791 96.1782 31.3404 83.0091C44.5017 69.8401 62.3462 62.4325 80.9591 62.4114H259.444V253.698H14.8052C13.7314 253.697 12.7019 253.27 11.9426 252.51C11.1832 251.75 10.7561 250.72 10.7549 249.645ZM257.824 64.0325H80.9591C62.7758 64.0531 45.3431 71.2898 32.4855 84.1549C19.628 97.02 12.3956 114.463 12.375 132.657V249.645C12.3757 250.29 12.632 250.908 13.0876 251.364C13.5432 251.82 14.1609 252.076 14.8052 252.077H257.824V64.0325Z" fill="#3F3D56"/>
<path d="M164.667 167.781C160.801 167.777 157.095 166.238 154.361 163.503C151.628 160.768 150.09 157.06 150.086 153.191V48.6322C150.085 47.9875 149.829 47.3694 149.373 46.9136C148.918 46.4577 148.3 46.2013 147.656 46.2006H90.9512C89.8774 46.1994 88.8479 45.772 88.0886 45.0122C87.3293 44.2525 86.9021 43.2224 86.9009 42.1479V4.05268C86.9021 2.97823 87.3293 1.94813 88.0886 1.18837C88.8479 0.428617 89.8774 0.00124421 90.9512 0H175.198C176.271 0.00122922 177.301 0.428602 178.06 1.18836C178.82 1.94812 179.247 2.97822 179.248 4.05268V153.191C179.244 157.06 177.706 160.768 174.972 163.503C172.239 166.238 168.533 167.777 164.667 167.781Z" fill="#682E84"/>
<path d="M265.924 60.7903C278.145 60.7646 289.875 65.5974 298.534 74.2254C307.193 82.8535 312.072 94.57 312.098 106.798V239.977H402.825C406.47 239.969 409.968 241.41 412.551 243.984C415.133 246.557 416.588 250.051 416.596 253.698H219.751V106.798C219.777 94.57 224.656 82.8535 233.315 74.2254C241.974 65.5974 253.704 60.7646 265.924 60.7903Z" fill="#321640"/>
<path d="M254.844 136.63L264.405 176.148L451.433 130.846L441.872 91.3277C441.757 90.8445 441.521 90.3983 441.187 90.0306C440.853 89.6629 440.432 89.3855 439.963 89.2243C439.616 89.1023 439.249 89.0471 438.882 89.0616L330.772 33.0519C330.138 32.7282 329.41 32.6418 328.718 32.8081C328.027 32.9745 327.417 33.3827 327 33.9591L274.897 106.659L255.254 134.074C255.219 134.122 255.194 134.177 255.181 134.235C255.169 134.294 255.169 134.354 255.182 134.413C254.783 135.079 254.661 135.875 254.844 136.63Z" fill="white"/>
<path d="M255.182 134.413C255.192 134.464 255.211 134.513 255.239 134.557C255.267 134.601 255.304 134.639 255.347 134.669C255.398 134.704 255.455 134.728 255.515 134.74C255.576 134.752 255.638 134.751 255.698 134.738C255.796 134.712 255.881 134.653 255.94 134.57L256.008 134.477L257.03 133.046L275.604 107.137L327.692 34.454C327.989 34.0421 328.424 33.7505 328.918 33.6321C329.411 33.5136 329.931 33.5763 330.383 33.8086L437.655 89.3844L438.618 89.8843C438.657 89.9007 438.697 89.9147 438.737 89.9262C438.81 89.913 438.884 89.9059 438.957 89.9051C439.058 89.8714 439.142 89.8004 439.192 89.7067C439.218 89.6574 439.234 89.6034 439.24 89.5478C439.245 89.4922 439.239 89.4361 439.223 89.3828C439.206 89.3294 439.179 89.2798 439.144 89.2368C439.108 89.1939 439.064 89.1583 439.015 89.1323L438.882 89.0616L330.772 33.0519C330.138 32.7282 329.41 32.6418 328.718 32.8081C328.027 32.9745 327.417 33.3827 327 33.9591L274.897 106.659L255.254 134.074C255.219 134.122 255.194 134.177 255.181 134.235C255.169 134.294 255.169 134.354 255.182 134.413Z" fill="#3F3D56"/>
<path d="M311.353 138.443L315.516 138.905L346.414 142.33L366.897 144.599L368.107 144.733L393.666 124.758L394.645 123.993L400.682 119.275L422.16 102.492L422.289 101.313L429.928 32.3251C430.032 31.3751 429.755 30.4226 429.159 29.6764C428.562 28.9301 427.694 28.451 426.745 28.3441L324.794 17.0438C323.845 16.9401 322.893 17.217 322.147 17.8139C321.401 18.4108 320.922 19.2791 320.815 20.2286L315.428 68.8912L312.44 95.8706L309.766 120.007L308.527 131.216L308.166 134.463C308.063 135.413 308.34 136.366 308.937 137.112C309.535 137.858 310.403 138.337 311.353 138.443Z" fill="#E6E6E6"/>
<path d="M339.369 77.9726L383.531 82.8666L399.192 84.6017C399.883 84.6784 400.583 84.618 401.251 84.424C401.92 84.23 402.543 83.9063 403.086 83.4712C403.629 83.0362 404.081 82.4984 404.417 81.8885C404.752 81.2787 404.964 80.6087 405.041 79.9168C405.117 79.2249 405.057 78.5248 404.863 77.8562C404.669 77.1877 404.346 76.5639 403.911 76.0205C403.476 75.4771 402.938 75.0248 402.329 74.6892C401.719 74.3536 401.05 74.1415 400.358 74.0648L380.879 71.9062L340.538 67.4305C339.142 67.2761 337.741 67.683 336.644 68.5618C335.547 69.4406 334.843 70.7193 334.688 72.1167C334.533 73.5142 334.939 74.9161 335.817 76.0142C336.695 77.1123 337.972 77.8167 339.369 77.9726Z" fill="white"/>
<path d="M336.854 97.5187C336.968 97.5391 337.082 97.5594 337.198 97.5706L388.463 103.253L397.022 104.204C398.419 104.359 399.821 103.952 400.918 103.072C402.015 102.193 402.718 100.914 402.873 99.5164C403.027 98.1186 402.62 96.7165 401.742 95.6188C400.863 94.5211 399.585 93.8175 398.188 93.6629L385.811 92.2928L345.203 87.7904L338.369 87.0327C337.002 86.8801 335.63 87.2654 334.542 88.1069C333.454 88.9485 332.736 90.1803 332.539 91.5421C332.342 92.904 332.682 94.2889 333.488 95.4042C334.293 96.5196 335.5 97.2778 336.854 97.5186V97.5187Z" fill="white"/>
<path d="M331.052 114.851C331.473 115.549 332.048 116.141 332.733 116.58C333.419 117.02 334.197 117.295 335.006 117.385L356.018 119.713L393.44 123.862L393.449 123.86L394.645 123.993L400.682 119.275C400.719 118.917 400.72 118.556 400.683 118.197C400.556 116.994 400.022 115.87 399.169 115.012C398.317 114.154 397.197 113.612 395.995 113.477L390.797 112.899L370.175 110.616L355.337 108.969L336.171 106.844C335.189 106.735 334.196 106.903 333.304 107.33C332.413 107.756 331.658 108.423 331.125 109.256C330.593 110.089 330.304 111.055 330.291 112.043C330.278 113.032 330.542 114.005 331.053 114.851L331.052 114.851Z" fill="white"/>
<path d="M360.565 54.0789L371.553 55.2966L376.407 55.8359L383.738 56.6477C385.135 56.8024 386.536 56.3954 387.633 55.5163C388.73 54.6372 389.433 53.3581 389.588 51.9602C389.742 50.5624 389.336 49.1604 388.457 48.0627C387.578 46.9649 386.3 46.2613 384.903 46.1067L361.736 43.541C360.339 43.3857 358.938 43.7918 357.841 44.6701C356.744 45.5484 356.04 46.8269 355.885 48.2243C355.73 49.6217 356.135 51.0236 357.013 52.1216C357.891 53.2195 359.169 53.9236 360.565 54.0789V54.0789Z" fill="white"/>
<path d="M270.717 83.4303L284.114 138.801L306.472 143.055L327.155 146.995L349.345 151.22L356.436 152.57C356.851 152.648 357.278 152.638 357.688 152.538C358.099 152.439 358.484 152.253 358.817 151.993L364.505 147.548L368.107 144.733L393.666 124.758L377.415 57.5859C377.254 56.9176 376.904 56.3099 376.407 55.8359C375.971 55.4164 375.436 55.1136 374.852 54.9553C374.268 54.7971 373.653 54.7885 373.065 54.9303L273.371 79.0784C272.443 79.3039 271.642 79.8889 271.144 80.7048C270.647 81.5208 270.493 82.5011 270.717 83.4303Z" fill="#682E84"/>
<path d="M301.435 127.479C301.767 128.845 302.626 130.023 303.826 130.756C305.025 131.488 306.465 131.714 307.831 131.384L366.329 117.215C367.694 116.882 368.871 116.022 369.603 114.822C370.334 113.622 370.561 112.181 370.232 110.815C370.217 110.747 370.198 110.68 370.175 110.615C369.801 109.298 368.933 108.176 367.751 107.485C366.569 106.795 365.166 106.588 363.836 106.91L305.338 121.079C303.973 121.411 302.795 122.272 302.063 123.471C301.332 124.671 301.106 126.113 301.435 127.479Z" fill="white"/>
<path d="M306.472 143.055L327.155 146.994L370.967 136.382C372.332 136.052 373.511 135.191 374.243 133.991C374.975 132.791 375.2 131.349 374.869 129.982C374.539 128.616 373.679 127.437 372.48 126.704C371.28 125.972 369.839 125.747 368.473 126.077L309.975 140.247C308.753 140.541 307.676 141.263 306.94 142.282C306.762 142.526 306.606 142.784 306.472 143.055Z" fill="white"/>
<path d="M349.345 151.22L356.436 152.57C356.851 152.649 357.278 152.638 357.688 152.538C358.099 152.439 358.484 152.253 358.817 151.993L364.505 147.548L349.345 151.22Z" fill="white"/>
<path d="M313.222 97.7889C313.554 99.1548 314.414 100.333 315.613 101.065C316.812 101.797 318.253 102.024 319.618 101.694L342.276 96.2059C343.641 95.8733 344.818 95.0128 345.549 93.8131C346.281 92.6134 346.507 91.1724 346.179 89.806C346.002 89.0718 345.669 88.3844 345.203 87.7909C344.576 86.9885 343.731 86.3837 342.77 86.0486C341.809 85.7134 340.772 85.6622 339.783 85.9009L317.125 91.3891C315.759 91.72 314.581 92.5802 313.849 93.7803C313.117 94.9805 312.892 96.4223 313.222 97.7888V97.7889Z" fill="white"/>
<path d="M327.153 146.994L349.347 151.22L356.435 152.571C356.85 152.648 357.277 152.637 357.687 152.538C358.097 152.438 358.482 152.253 358.815 151.994L364.508 147.548L362.51 148.032L358.293 151.323C358.055 151.508 357.781 151.64 357.487 151.711C357.194 151.782 356.89 151.79 356.593 151.735L351.345 150.736L329.151 146.51L327.153 146.994ZM393.447 123.862L393.663 124.755L394.647 123.989L393.447 123.862ZM327.153 146.994L349.347 151.22L356.435 152.571C356.85 152.648 357.277 152.637 357.687 152.538C358.097 152.438 358.482 152.253 358.815 151.994L364.508 147.548L362.51 148.032L358.293 151.323C358.055 151.508 357.781 151.64 357.487 151.711C357.194 151.782 356.89 151.79 356.593 151.735L351.345 150.736L329.151 146.51L327.153 146.994ZM327.153 146.994L349.347 151.22L356.435 152.571C356.85 152.648 357.277 152.637 357.687 152.538C358.097 152.438 358.482 152.253 358.815 151.994L364.508 147.548L362.51 148.032L358.293 151.323C358.055 151.508 357.781 151.64 357.487 151.711C357.194 151.782 356.89 151.79 356.593 151.735L351.345 150.736L329.151 146.51L327.153 146.994ZM254.844 136.63L279.888 240.144C280.074 240.909 280.556 241.569 281.227 241.979C281.899 242.389 282.706 242.515 283.47 242.331L464.73 198.426C465.495 198.24 466.155 197.758 466.564 197.086C466.974 196.414 467.101 195.607 466.916 194.842L441.872 91.3277C441.757 90.8445 441.521 90.3984 441.187 90.0307C440.854 89.6629 440.432 89.3856 439.963 89.2243C439.616 89.1023 439.249 89.0471 438.882 89.0616C438.454 89.074 438.034 89.1844 437.655 89.3844C437.48 89.4675 437.315 89.57 437.163 89.6901L422.287 101.313L400.683 118.199L393.445 123.856L393.447 123.862L393.44 123.864L366.898 144.596L362.51 148.031L358.293 151.323C358.055 151.508 357.781 151.64 357.487 151.711C357.194 151.782 356.89 151.79 356.593 151.735L351.345 150.736L329.151 146.51L306.937 142.283L258.284 133.019C257.869 132.936 257.441 132.946 257.03 133.046C256.477 133.181 255.974 133.472 255.582 133.885C255.431 134.047 255.298 134.224 255.182 134.413C254.783 135.079 254.661 135.875 254.844 136.63ZM327.153 146.994L349.347 151.22L356.435 152.571C356.85 152.648 357.277 152.637 357.687 152.538C358.097 152.438 358.482 152.253 358.815 151.994L364.508 147.548L362.51 148.032L358.293 151.323C358.055 151.508 357.781 151.64 357.487 151.711C357.194 151.782 356.89 151.79 356.593 151.735L351.345 150.736L329.151 146.51L327.153 146.994ZM327.153 146.994L349.347 151.22L356.435 152.571C356.85 152.648 357.277 152.637 357.687 152.538C358.097 152.438 358.482 152.253 358.815 151.994L364.508 147.548L362.51 148.032L358.293 151.323C358.055 151.508 357.781 151.64 357.487 151.711C357.194 151.782 356.89 151.79 356.593 151.735L351.345 150.736L329.151 146.51L327.153 146.994ZM327.153 146.994L349.347 151.22L356.435 152.571C356.85 152.648 357.277 152.637 357.687 152.538C358.097 152.438 358.482 152.253 358.815 151.994L364.508 147.548L362.51 148.032L358.293 151.323C358.055 151.508 357.781 151.64 357.487 151.711C357.194 151.782 356.89 151.79 356.593 151.735L351.345 150.736L329.151 146.51L327.153 146.994Z" fill="white"/>
<path d="M327.153 146.994L349.347 151.22L356.435 152.571C356.85 152.648 357.277 152.637 357.687 152.538C358.097 152.438 358.482 152.253 358.815 151.994L364.508 147.548L362.51 148.031L358.293 151.323C358.055 151.508 357.781 151.64 357.487 151.711C357.194 151.782 356.89 151.79 356.593 151.735L351.345 150.736L329.151 146.51L327.153 146.994ZM393.447 123.862L393.663 124.755L394.647 123.989L393.447 123.862ZM327.153 146.994L349.347 151.22L356.435 152.571C356.85 152.648 357.277 152.637 357.687 152.538C358.097 152.438 358.482 152.253 358.815 151.994L364.508 147.548L362.51 148.031L358.293 151.323C358.055 151.508 357.781 151.64 357.487 151.711C357.194 151.782 356.89 151.79 356.593 151.735L351.345 150.736L329.151 146.51L327.153 146.994ZM327.153 146.994L349.347 151.22L356.435 152.571C356.85 152.648 357.277 152.637 357.687 152.538C358.097 152.438 358.482 152.253 358.815 151.994L364.508 147.548L362.51 148.031L358.293 151.323C358.055 151.508 357.781 151.64 357.487 151.711C357.194 151.782 356.89 151.79 356.593 151.735L351.345 150.736L329.151 146.51L327.153 146.994ZM256.007 134.477L256.118 134.559C256.136 134.529 256.168 134.502 256.192 134.47C256.438 134.215 256.743 134.024 257.08 133.916C257.417 133.807 257.776 133.784 258.124 133.848L306.474 143.051L327.153 146.994L349.347 151.22L356.435 152.571C356.85 152.648 357.277 152.637 357.687 152.537C358.097 152.438 358.482 152.253 358.815 151.994L364.508 147.548L362.51 148.031L358.293 151.323C358.055 151.508 357.781 151.64 357.487 151.711C357.194 151.782 356.89 151.79 356.593 151.735L351.345 150.736L329.151 146.51L306.937 142.283L258.284 133.019C257.869 132.936 257.441 132.946 257.03 133.046L256.007 134.477ZM254.844 136.63L279.888 240.144C280.074 240.909 280.556 241.569 281.227 241.979C281.899 242.389 282.706 242.515 283.47 242.331L464.73 198.426C465.495 198.24 466.155 197.758 466.564 197.086C466.974 196.414 467.101 195.607 466.916 194.842L441.872 91.3277C441.757 90.8445 441.521 90.3984 441.187 90.0307C440.854 89.6629 440.432 89.3856 439.963 89.2243C439.616 89.1023 439.249 89.0471 438.882 89.0616C438.454 89.074 438.034 89.1844 437.655 89.3844C437.48 89.4675 437.315 89.57 437.163 89.6901L422.287 101.313L400.683 118.199L393.445 123.856L393.447 123.862L393.44 123.864L366.898 144.596L362.51 148.031L358.293 151.323C358.055 151.508 357.781 151.64 357.487 151.711C357.194 151.782 356.89 151.79 356.593 151.735L351.345 150.736L329.151 146.51L306.937 142.283L258.284 133.019C257.869 132.936 257.441 132.946 257.03 133.046C256.477 133.181 255.974 133.472 255.582 133.885C255.431 134.047 255.298 134.224 255.182 134.413C254.783 135.079 254.661 135.875 254.844 136.63ZM255.67 136.43C255.596 136.125 255.592 135.807 255.656 135.5C255.721 135.193 255.854 134.904 256.044 134.654C256.061 134.618 256.086 134.585 256.118 134.559C256.136 134.529 256.168 134.502 256.192 134.471C256.438 134.215 256.743 134.024 257.08 133.916C257.417 133.807 257.776 133.784 258.124 133.848L306.474 143.051L327.153 146.994L349.347 151.22L356.435 152.571C356.85 152.648 357.277 152.637 357.687 152.538C358.097 152.438 358.482 152.253 358.815 151.994L364.508 147.548L368.108 144.733L393.663 124.755L394.647 123.989L400.679 119.274L422.161 102.488L437.69 90.3534C437.927 90.1692 438.199 90.0374 438.49 89.9668C438.571 89.9469 438.654 89.9333 438.737 89.9262C438.81 89.913 438.883 89.9059 438.957 89.9051C439.205 89.9028 439.452 89.943 439.687 90.0242C440.022 90.1408 440.322 90.3393 440.56 90.6017C440.799 90.864 440.968 91.1818 441.053 91.5263L466.097 195.04C466.162 195.311 466.174 195.593 466.131 195.869C466.088 196.145 465.991 196.409 465.846 196.648C465.701 196.886 465.51 197.093 465.284 197.257C465.059 197.422 464.803 197.54 464.532 197.606L283.272 241.511C282.725 241.642 282.148 241.551 281.669 241.257C281.189 240.963 280.846 240.491 280.714 239.944L255.67 136.43ZM327.153 146.994L349.347 151.22L356.435 152.571C356.85 152.648 357.277 152.637 357.687 152.538C358.097 152.438 358.482 152.253 358.815 151.994L364.508 147.548L362.51 148.032L358.293 151.323C358.055 151.508 357.781 151.64 357.487 151.711C357.194 151.782 356.89 151.79 356.593 151.735L351.345 150.736L329.151 146.51L327.153 146.994ZM327.153 146.994L349.347 151.22L356.435 152.571C356.85 152.648 357.277 152.637 357.687 152.538C358.097 152.438 358.482 152.253 358.815 151.994L364.508 147.548L362.51 148.032L358.293 151.323C358.055 151.508 357.781 151.64 357.487 151.711C357.194 151.782 356.89 151.79 356.593 151.735L351.345 150.736L329.151 146.51L327.153 146.994ZM327.153 146.994L349.347 151.22L356.435 152.571C356.85 152.648 357.277 152.637 357.687 152.538C358.097 152.438 358.482 152.253 358.815 151.994L364.508 147.548L362.51 148.032L358.293 151.323C358.055 151.508 357.781 151.64 357.487 151.711C357.194 151.782 356.89 151.79 356.593 151.735L351.345 150.736L329.151 146.51L327.153 146.994Z" fill="#3F3D56"/>
<path d="M417.489 178.089C417.08 176.393 417.361 174.604 418.269 173.114C419.178 171.625 420.639 170.557 422.334 170.145L445.211 164.603C446.904 164.199 448.688 164.483 450.172 165.393C451.656 166.303 452.719 167.764 453.128 169.456C453.538 171.149 453.26 172.935 452.356 174.423C451.452 175.911 449.996 176.979 448.306 177.395L425.428 182.937C423.733 183.345 421.945 183.064 420.457 182.155C418.968 181.247 417.901 179.784 417.489 178.089Z" fill="#682E84"/>
<path d="M164.667 158.865C167.798 158.865 170.337 156.325 170.337 153.191C170.337 150.058 167.798 147.518 164.667 147.518C161.535 147.518 158.996 150.058 158.996 153.191C158.996 156.325 161.535 158.865 164.667 158.865Z" fill="white"/>
</svg>
