<svg width="584" height="541" viewBox="0 0 584 541" fill="none" xmlns="http://www.w3.org/2000/svg">
<g clip-path="url(#clip0_2_320)">
<g filter="url(#filter0_b_2_320)">
<path d="M50.2502 396.166L31.9168 452.416L4.00014 540.333L74.4168 540.333C74.4168 540.333 61.8997 528.728 53.3936 507.977C42.745 481.965 50.2502 396.166 50.2502 396.166Z" fill="url(#paint0_linear_2_320)"/>
</g>
<g filter="url(#filter1_b_2_320)">
<path d="M132.334 138.25L86.0836 283.25C86.0836 283.25 66.3956 349.377 60.4008 388.208C53.5983 432.273 51.3938 475.678 68.6728 512.207C79.2178 534.5 86.917 540.333 86.917 540.333L180.667 540.333C180.667 540.333 142.093 512.291 122.328 484.16C101.634 454.699 96.9721 418.722 99.0885 377.606C101.799 324.941 112.875 271.315 121.527 218.244C130.15 165.361 132.334 138.25 132.334 138.25Z" fill="url(#paint1_linear_2_320)"/>
</g>
<g filter="url(#filter2_b_2_320)">
<path d="M138.167 119.083C135.286 155.824 130.528 196.071 124.709 232.812C118.358 272.937 112.271 313.358 109.513 353.238C107.893 376.698 107.431 400.482 110.414 423.057C113.464 446.107 122.998 465.048 135.055 481.201C159.616 514.091 196.917 540.333 196.917 540.333L267.334 540.333C267.334 540.333 205.754 502.172 178.587 471.018C165.62 456.138 154.688 437.871 150.099 415.587C146.173 396.505 145.218 375.679 145.23 355.447C145.268 303.349 152.205 250.097 158.382 197.219C164.303 146.591 170.667 17.4161 170.667 17.4161L138.167 119.083Z" fill="url(#paint2_linear_2_320)"/>
</g>
<g filter="url(#filter3_b_2_320)">
<path d="M178.584 2.41601C178.584 2.41601 180.199 8.51263 178.754 38.8918C177.703 61.132 173.806 107.111 172.408 129.374C170.069 166.668 164.94 204.365 160.773 241.777C156.068 284.004 155.303 302.953 155.423 344.551C155.496 367.809 156.424 391.493 160.773 413.525C165.779 438.868 178.175 458.832 193.324 475.051C225.373 509.356 277.334 540.333 277.334 540.333L312.75 540.333C312.75 540.333 253.832 509.606 225.664 479.605C198.224 450.373 189.05 410.014 189.528 363.094C190.043 312.684 198.366 261.19 204.047 210.147C209.473 161.183 210.163 113.122 211.034 64.7288C211.516 37.8595 211.5 12.8324 211.5 12.8324L178.584 2.41601Z" fill="url(#paint3_linear_2_320)"/>
</g>
<g filter="url(#filter4_b_2_320)">
<path d="M220.667 15.7496C220.667 15.7496 223.229 24.864 223.747 55.3699C224.115 77.2607 223.072 99.811 222.643 121.685C221.931 158.429 215.222 196.512 209.717 233.865C203.512 275.959 197.66 318.801 196.737 360.363C196.23 383.454 196.8 406.306 203.073 427.223C209.904 449.994 221.993 467.873 237.057 482.302C268.073 511.966 328.584 540.333 328.584 540.333L420.25 540.333C420.25 540.333 368.485 520.644 342.923 511.144C310.704 499.203 276.95 486.433 250.412 461.967C237.105 449.699 226.448 433.311 220.618 413.452C215.229 395.084 216.915 373.532 220.318 353.251C228.249 305.915 245.95 259.827 258.659 213.199C264.998 189.944 270.406 166.264 272.812 142.57C275.026 120.782 273.838 99.3844 272.489 78.3496C270.79 51.7414 266.917 30.3327 266.917 30.3327L220.667 15.7496Z" fill="url(#paint4_linear_2_320)"/>
</g>
<g filter="url(#filter5_b_2_320)">
<path d="M284 35.749C284 35.749 285.535 38.666 287.931 57.1527C290.646 78.0931 292.505 100.772 290.361 122.532C286.737 159.331 272.749 196.774 260.541 232.743C247.079 272.404 233.068 312.614 225.741 353.031C221.786 374.844 221.612 396.077 229.179 414.891C236.279 432.565 247.277 446.413 260.562 456.83C288.528 478.748 323.009 488.609 355.838 498.535C373.474 503.866 391.195 508.947 408.62 514.939C424.304 520.333 445.996 530.445 459.834 540.332L518.584 540.332C518.584 540.332 503.992 525.332 497.187 518.596C476.347 497.966 455.255 481.712 428.194 473.459C405.439 466.534 381.683 462.991 358.316 458.601C329.349 453.162 298.427 447.461 274.484 428.164C261.764 417.913 251.699 402.755 246.232 384.778C240.7 366.652 244.282 345.262 250.445 326.335C265.089 281.353 291.665 239.894 312.273 196.82C322.041 176.405 331.216 155.223 336.913 133.087C342.445 111.584 342.397 91.6302 341.061 70.823C340.667 54.499 340.25 53.6657 340.25 53.6657L284 35.749Z" fill="url(#paint5_linear_2_320)"/>
</g>
<g filter="url(#filter6_b_2_320)">
<path d="M355.667 58.6664C355.667 58.6664 359.352 78.3074 355.725 104.683C349.321 151.256 326.317 180.358 307.528 214.992C287.263 252.341 262.052 292.207 252.505 333.338C247.774 353.685 248.607 371.615 256.98 388.533C264.379 403.392 275.021 415.056 287.911 422.435C312.737 436.789 342.707 438.746 370.885 441.463C400.435 444.336 431.385 446.244 458.201 459.31C477.214 468.568 493.525 485.106 509.069 500.468C532.495 523.624 542.334 540.333 542.334 540.333L584 540.333C584 540.333 564.706 490.42 523.983 454.203C503.807 436.262 484.31 421.17 458.512 415.666C437.418 411.167 415.371 410.758 393.678 409.573C366.531 408.091 337.427 406.539 314.349 390.932C301.909 382.534 291.695 368.855 285.989 352.579C279.648 334.498 283.058 313.754 289.802 294.812C305.669 250.265 335.433 209.996 360.033 169.201C372.214 149.008 386.301 127.742 393.067 105.704C399.834 83.6662 399.417 72.4162 399.417 72.4162L355.667 58.6664Z" fill="url(#paint6_linear_2_320)"/>
</g>
<g filter="url(#filter7_b_2_320)">
<path d="M584 131.344L570.667 126.999C570.667 126.999 569.052 145.499 568.252 153.824C565.816 179.662 564.643 205.709 566.256 230.736C567.443 249.196 570.44 265.656 584 274.252L584 262.416L584 250.487L584 226.583L584 202.833L584 178.942L584 155.056L584 131.344Z" fill="url(#paint7_linear_2_320)"/>
</g>
<g filter="url(#filter8_b_2_320)">
<path d="M527.334 113.249C527.334 113.249 526.409 122.74 523.232 143.707C521.788 153.266 520.329 162.845 518.939 172.401C514.703 201.561 511.014 230.984 509.838 259.848C509.021 279.91 507.109 304.262 516.109 320.453C525.417 337.216 567.988 340.134 584 341.838L584 288.281C558.613 278.846 552.6 246.725 551.357 216.786C549.647 175.487 552.576 165.673 558.584 123.249L527.334 113.249Z" fill="url(#paint8_linear_2_320)"/>
</g>
<g filter="url(#filter9_b_2_320)">
<path d="M515.25 109.499L486.5 100.332C486.5 100.332 486.577 117.339 481.667 139.231C479.51 148.848 477.082 158.556 474.621 168.165C467.236 197.026 459.063 226.173 454.34 255.173C450.797 276.953 447.855 301.343 450.75 322.494C453.829 344.998 465.893 360.168 481.685 367.808C538.913 395.537 584 375.749 584 375.749L584 347.833C584 347.833 562.813 352.111 534.9 343.818C522.23 340.054 511.361 332.604 506.017 317.746C500.871 303.439 501.386 285.556 501.364 269.433C501.297 221.265 507.328 172.118 513.142 123.228L515.25 109.499Z" fill="url(#paint9_linear_2_320)"/>
</g>
<g filter="url(#filter10_b_2_320)">
<path d="M476.917 97.416L448.167 88.2494C448.167 88.2494 446.713 99.087 443.148 108.744C439.583 118.401 435.417 128.109 431.16 137.526C418.161 166.252 402.962 194.479 390.833 223.561C382.083 244.529 375.151 266.262 371.379 288.853C367.149 314.162 370.183 335.782 382.39 352.418C406.454 385.156 450.593 387.61 488.395 388.535C523.169 389.393 584 395.333 584 395.333L584 383.249L569.332 383.207C539.987 383.773 509.976 383.935 482.457 374.945C469.367 370.668 457.106 363.053 449.354 349.619C441.017 335.137 439.425 317.747 439.998 299.439C441.641 247.261 455.336 194.777 467.843 142.259C473.903 116.803 476.917 97.416 476.917 97.416Z" fill="url(#paint10_linear_2_320)"/>
</g>
<g filter="url(#filter11_b_2_320)">
<path d="M405.326 92.6497C401.652 103.716 362.482 170.062 339.519 206.813C317.008 242.841 288.155 290.324 294.282 331.716C299.556 367.327 331.668 386.122 359.922 392.597C389.054 399.266 419.938 397.815 450.069 399.081C464.101 399.671 478.137 400.686 491.676 403.746C506.993 407.214 519.648 414.624 532.219 424.63C578.582 461.571 584 472.417 584 472.417L584 413.25C584 413.25 578.444 404.931 553.093 397.484C531.971 391.28 509.139 391.264 486.854 390.904C438.472 390.125 351.488 389.369 356.561 310.875C359.261 269.105 377.943 225.687 395.736 185.85C412.468 148.376 435.25 84.0832 435.25 84.0832L409 75.7499C409 75.7499 409 81.5829 405.326 92.6497Z" fill="url(#paint11_linear_2_320)"/>
</g>
</g>
<defs>
<filter id="filter0_b_2_320" x="-29.3332" y="362.832" width="137.083" height="210.834" filterUnits="userSpaceOnUse" color-interpolation-filters="sRGB">
<feFlood flood-opacity="0" result="BackgroundImageFix"/>
<feGaussianBlur in="BackgroundImageFix" stdDeviation="16.6667"/>
<feComposite in2="SourceAlpha" operator="in" result="effect1_backgroundBlur_2_320"/>
<feBlend mode="normal" in="SourceGraphic" in2="effect1_backgroundBlur_2_320" result="shape"/>
</filter>
<filter id="filter1_b_2_320" x="22.0256" y="104.917" width="191.975" height="468.75" filterUnits="userSpaceOnUse" color-interpolation-filters="sRGB">
<feFlood flood-opacity="0" result="BackgroundImageFix"/>
<feGaussianBlur in="BackgroundImageFix" stdDeviation="16.6667"/>
<feComposite in2="SourceAlpha" operator="in" result="effect1_backgroundBlur_2_320"/>
<feBlend mode="normal" in="SourceGraphic" in2="effect1_backgroundBlur_2_320" result="shape"/>
</filter>
<filter id="filter2_b_2_320" x="74.9002" y="-15.9173" width="225.767" height="589.584" filterUnits="userSpaceOnUse" color-interpolation-filters="sRGB">
<feFlood flood-opacity="0" result="BackgroundImageFix"/>
<feGaussianBlur in="BackgroundImageFix" stdDeviation="16.6667"/>
<feComposite in2="SourceAlpha" operator="in" result="effect1_backgroundBlur_2_320"/>
<feBlend mode="normal" in="SourceGraphic" in2="effect1_backgroundBlur_2_320" result="shape"/>
</filter>
<filter id="filter3_b_2_320" x="122.079" y="-30.9173" width="224.005" height="604.583" filterUnits="userSpaceOnUse" color-interpolation-filters="sRGB">
<feFlood flood-opacity="0" result="BackgroundImageFix"/>
<feGaussianBlur in="BackgroundImageFix" stdDeviation="16.6667"/>
<feComposite in2="SourceAlpha" operator="in" result="effect1_backgroundBlur_2_320"/>
<feBlend mode="normal" in="SourceGraphic" in2="effect1_backgroundBlur_2_320" result="shape"/>
</filter>
<filter id="filter4_b_2_320" x="163.261" y="-17.5833" width="290.323" height="591.249" filterUnits="userSpaceOnUse" color-interpolation-filters="sRGB">
<feFlood flood-opacity="0" result="BackgroundImageFix"/>
<feGaussianBlur in="BackgroundImageFix" stdDeviation="16.6667"/>
<feComposite in2="SourceAlpha" operator="in" result="effect1_backgroundBlur_2_320"/>
<feBlend mode="normal" in="SourceGraphic" in2="effect1_backgroundBlur_2_320" result="shape"/>
</filter>
<filter id="filter5_b_2_320" x="189.718" y="2.41569" width="362.199" height="571.25" filterUnits="userSpaceOnUse" color-interpolation-filters="sRGB">
<feFlood flood-opacity="0" result="BackgroundImageFix"/>
<feGaussianBlur in="BackgroundImageFix" stdDeviation="16.6667"/>
<feComposite in2="SourceAlpha" operator="in" result="effect1_backgroundBlur_2_320"/>
<feBlend mode="normal" in="SourceGraphic" in2="effect1_backgroundBlur_2_320" result="shape"/>
</filter>
<filter id="filter6_b_2_320" x="216.291" y="25.3327" width="401.042" height="548.334" filterUnits="userSpaceOnUse" color-interpolation-filters="sRGB">
<feFlood flood-opacity="0" result="BackgroundImageFix"/>
<feGaussianBlur in="BackgroundImageFix" stdDeviation="16.6667"/>
<feComposite in2="SourceAlpha" operator="in" result="effect1_backgroundBlur_2_320"/>
<feBlend mode="normal" in="SourceGraphic" in2="effect1_backgroundBlur_2_320" result="shape"/>
</filter>
<filter id="filter7_b_2_320" x="532.18" y="93.6657" width="85.1535" height="213.92" filterUnits="userSpaceOnUse" color-interpolation-filters="sRGB">
<feFlood flood-opacity="0" result="BackgroundImageFix"/>
<feGaussianBlur in="BackgroundImageFix" stdDeviation="16.6667"/>
<feComposite in2="SourceAlpha" operator="in" result="effect1_backgroundBlur_2_320"/>
<feBlend mode="normal" in="SourceGraphic" in2="effect1_backgroundBlur_2_320" result="shape"/>
</filter>
<filter id="filter8_b_2_320" x="475.756" y="79.9157" width="141.578" height="295.256" filterUnits="userSpaceOnUse" color-interpolation-filters="sRGB">
<feFlood flood-opacity="0" result="BackgroundImageFix"/>
<feGaussianBlur in="BackgroundImageFix" stdDeviation="16.6667"/>
<feComposite in2="SourceAlpha" operator="in" result="effect1_backgroundBlur_2_320"/>
<feBlend mode="normal" in="SourceGraphic" in2="effect1_backgroundBlur_2_320" result="shape"/>
</filter>
<filter id="filter9_b_2_320" x="416.243" y="66.9987" width="201.091" height="348.925" filterUnits="userSpaceOnUse" color-interpolation-filters="sRGB">
<feFlood flood-opacity="0" result="BackgroundImageFix"/>
<feGaussianBlur in="BackgroundImageFix" stdDeviation="16.6667"/>
<feComposite in2="SourceAlpha" operator="in" result="effect1_backgroundBlur_2_320"/>
<feBlend mode="normal" in="SourceGraphic" in2="effect1_backgroundBlur_2_320" result="shape"/>
</filter>
<filter id="filter10_b_2_320" x="336.243" y="54.9157" width="281.091" height="373.751" filterUnits="userSpaceOnUse" color-interpolation-filters="sRGB">
<feFlood flood-opacity="0" result="BackgroundImageFix"/>
<feGaussianBlur in="BackgroundImageFix" stdDeviation="16.6667"/>
<feComposite in2="SourceAlpha" operator="in" result="effect1_backgroundBlur_2_320"/>
<feBlend mode="normal" in="SourceGraphic" in2="effect1_backgroundBlur_2_320" result="shape"/>
</filter>
<filter id="filter11_b_2_320" x="260.114" y="42.4167" width="357.22" height="463.333" filterUnits="userSpaceOnUse" color-interpolation-filters="sRGB">
<feFlood flood-opacity="0" result="BackgroundImageFix"/>
<feGaussianBlur in="BackgroundImageFix" stdDeviation="16.6667"/>
<feComposite in2="SourceAlpha" operator="in" result="effect1_backgroundBlur_2_320"/>
<feBlend mode="normal" in="SourceGraphic" in2="effect1_backgroundBlur_2_320" result="shape"/>
</filter>
<linearGradient id="paint0_linear_2_320" x1="76.7561" y1="-37.4522" x2="364.087" y2="113.622" gradientUnits="userSpaceOnUse">
<stop stop-color="white" stop-opacity="0.4"/>
<stop offset="1" stop-color="white" stop-opacity="0.1"/>
</linearGradient>
<linearGradient id="paint1_linear_2_320" x1="121.1" y1="-64.159" x2="469.974" y2="135.395" gradientUnits="userSpaceOnUse">
<stop stop-color="white" stop-opacity="0.4"/>
<stop offset="1" stop-color="white" stop-opacity="0.1"/>
</linearGradient>
<linearGradient id="paint2_linear_2_320" x1="152.825" y1="-79.9645" x2="563.533" y2="170.796" gradientUnits="userSpaceOnUse">
<stop stop-color="white" stop-opacity="0.4"/>
<stop offset="1" stop-color="white" stop-opacity="0.1"/>
</linearGradient>
<linearGradient id="paint3_linear_2_320" x1="180.508" y1="-77.9556" x2="620.001" y2="199.673" gradientUnits="userSpaceOnUse">
<stop stop-color="white" stop-opacity="0.4"/>
<stop offset="1" stop-color="white" stop-opacity="0.1"/>
</linearGradient>
<linearGradient id="paint4_linear_2_320" x1="215.162" y1="-61.8395" x2="675.362" y2="246.107" gradientUnits="userSpaceOnUse">
<stop stop-color="white" stop-opacity="0.4"/>
<stop offset="1" stop-color="white" stop-opacity="0.1"/>
</linearGradient>
<linearGradient id="paint5_linear_2_320" x1="262.371" y1="-73.8107" x2="753.243" y2="280.56" gradientUnits="userSpaceOnUse">
<stop stop-color="white" stop-opacity="0.4"/>
<stop offset="1" stop-color="white" stop-opacity="0.1"/>
</linearGradient>
<linearGradient id="paint6_linear_2_320" x1="318.722" y1="-111.39" x2="819.048" y2="261.85" gradientUnits="userSpaceOnUse">
<stop stop-color="white" stop-opacity="0.4"/>
<stop offset="1" stop-color="white" stop-opacity="0.1"/>
</linearGradient>
<linearGradient id="paint7_linear_2_320" x1="585.996" y1="-73.6071" x2="814.936" y2="98.2081" gradientUnits="userSpaceOnUse">
<stop stop-color="white" stop-opacity="0.4"/>
<stop offset="1" stop-color="white" stop-opacity="0.1"/>
</linearGradient>
<linearGradient id="paint8_linear_2_320" x1="535.528" y1="-65.1911" x2="796.569" y2="129.636" gradientUnits="userSpaceOnUse">
<stop stop-color="white" stop-opacity="0.4"/>
<stop offset="1" stop-color="white" stop-opacity="0.1"/>
</linearGradient>
<linearGradient id="paint9_linear_2_320" x1="482.449" y1="-72.7945" x2="787.247" y2="167.262" gradientUnits="userSpaceOnUse">
<stop stop-color="white" stop-opacity="0.4"/>
<stop offset="1" stop-color="white" stop-opacity="0.1"/>
</linearGradient>
<linearGradient id="paint10_linear_2_320" x1="426.718" y1="-101.703" x2="817.735" y2="196.925" gradientUnits="userSpaceOnUse">
<stop stop-color="white" stop-opacity="0.4"/>
<stop offset="1" stop-color="white" stop-opacity="0.1"/>
</linearGradient>
<linearGradient id="paint11_linear_2_320" x1="359.537" y1="7.34247" x2="751.365" y2="324.487" gradientUnits="userSpaceOnUse">
<stop stop-color="white" stop-opacity="0.4"/>
<stop offset="1" stop-color="white" stop-opacity="0.1"/>
</linearGradient>
<clipPath id="clip0_2_320">
<path d="M175.446 0.945312L733.66 178.703L559.189 726.594L0.975426 548.837L175.446 0.945312Z" fill="white"/>
</clipPath>
</defs>
</svg>
