<svg width="146" height="28" viewBox="0 0 146 28" fill="none" xmlns="http://www.w3.org/2000/svg">
<path d="M28 22.4751L27.8943 0.0684038L16.8024 0.0154048C7.74032 -0.0277715 5.69147 0.0121325 5.60646 0.233948C5.54924 0.383121 5.5288 1.46601 5.56109 2.64016L5.61974 4.77483L23.2964 4.88144V22.4751H28Z" fill="white"/>
<path d="M19.0049 28V8.96968H0V28H19.0049Z" fill="white"/>
<path fill-rule="evenodd" clip-rule="evenodd" d="M78.3037 3.76476C80.6614 4.98903 80.9819 7.21974 78.9756 8.44303C77.5658 9.30261 76.4698 9.27906 76.4698 8.38939C76.4698 8.01194 76.2418 7.22268 75.9635 6.6359C74.7241 4.02413 70.8907 4.30707 69.3057 7.12685C67.717 9.95318 67.6219 16.8504 69.1278 20.0234C70.6369 23.2043 75.5464 23.6887 78.7221 20.9707C79.9159 19.9485 80.0363 19.9099 80.2208 20.4908C80.7601 22.19 79.1712 24.1362 76.7004 24.8028C74.3863 25.4272 70.0469 25.037 68.0804 24.0276C64.7416 22.3137 63.0012 19.016 62.9514 14.3093C62.9073 10.1563 63.6259 8.13002 65.976 5.77992C68.381 3.37488 69.9337 2.83192 74.0167 2.96864C76.2428 3.04322 77.2878 3.2375 78.3037 3.76476ZM95.8256 3.19923C100.756 4.56841 103.64 10.031 102.685 16.1933C101.779 22.0402 98.3333 25.103 92.6614 25.103C88.0871 25.103 85.1735 23.4728 83.4403 19.943C82.5813 18.194 82.5208 17.8019 82.5208 13.9822C82.5208 10.1615 82.581 9.77067 83.4412 8.01946C85.0763 4.68943 88.1588 2.90813 92.3333 2.88033C93.5926 2.87182 95.1642 3.01541 95.8256 3.19923ZM56.993 12.736C58.8286 17.8971 60.5206 22.3496 60.7534 22.6303C60.9863 22.9109 61.527 23.1405 61.9545 23.1405C62.6021 23.1405 62.7323 23.306 62.7323 24.1303V25.12L52.7563 24.9395V24.1218C52.7563 23.4365 52.9417 23.2776 53.901 23.1405C55.3222 22.9374 55.455 22.3303 54.6164 19.8697L54.0034 18.0707L46.4373 17.8869L45.8944 19.522C45.5957 20.4212 45.3985 21.5663 45.4557 22.0667C45.5437 22.8305 45.7446 23.0032 46.7052 23.1405C47.6645 23.2776 47.85 23.4365 47.85 24.1218V24.9395H40V24.1218C40 23.5347 40.1979 23.2759 40.7019 23.204C41.0879 23.149 41.6308 22.853 41.9085 22.5459C42.1862 22.2391 43.8249 18.163 45.55 13.4876C47.2753 8.81264 48.8502 4.57625 49.0497 4.07385C49.4014 3.18942 49.4802 3.16358 51.5346 3.25615L53.6564 3.35198L56.993 12.736ZM118.536 3.67121C122.969 4.98805 124.028 10.1534 120.5 13.2515C119.837 13.8334 119.153 14.3093 118.979 14.3093C118.392 14.3093 118.659 14.9474 120.652 18.3121C123.316 22.8085 123.651 23.1405 125.524 23.1405C126.356 23.1405 127.213 22.9639 127.429 22.748C127.988 22.1894 127.988 5.77501 127.429 5.21635C127.213 5.00048 126.551 4.82386 125.957 4.82386C125.015 4.82386 124.878 4.7169 124.878 3.97802V3.13218L138.779 3.35198L140.726 4.33454C144.106 6.04028 145.811 9.17374 145.811 13.68C145.811 16.6221 144.829 19.6986 143.33 21.4502C141.665 23.3943 139.495 24.4037 136.064 24.8302C132.728 25.245 121.546 25.0052 120.224 24.4907C118.948 23.9939 118.087 22.8864 116.043 19.1112C114.379 16.0395 114.157 15.7733 113.181 15.6788L112.122 15.5761L112.127 18.9496C112.13 20.8048 112.241 22.4949 112.375 22.7052C112.509 22.9152 113.132 23.1359 113.76 23.1958C114.731 23.2877 114.902 23.4264 114.902 24.1218V24.9395H104.435V24.1218C104.435 23.4264 104.606 23.2877 105.577 23.1958C106.205 23.1359 106.829 22.9152 106.962 22.7052C107.096 22.4949 107.208 18.5509 107.211 13.9403C107.216 4.8824 107.234 4.97628 105.417 4.77087C104.69 4.6891 104.408 4.4693 104.331 3.92438L104.226 3.18844H110.568C115.208 3.18844 117.346 3.31796 118.536 3.67121ZM90.2024 5.55979C89.6068 5.96472 88.845 6.8279 88.5091 7.47846C87.6619 9.12042 87.2269 13.4091 87.587 16.5661C88.1097 21.1499 89.3202 22.8334 92.2489 23.0499C94.3442 23.2046 95.719 22.4667 96.5337 20.7502C98.1423 17.36 98.1155 10.3015 96.4821 7.15367C95.3333 4.93997 92.2614 4.16053 90.2024 5.55979ZM112.122 13.6551H113.409C116.235 13.6551 117.355 12.4021 117.355 9.23948C117.355 7.29399 116.741 5.68899 115.869 5.35406C115.578 5.24252 114.615 5.15094 113.73 5.15094H112.122V13.6551ZM132.728 23.202L134.445 22.9695C136.553 22.6839 137.634 22.1524 138.712 20.8709C140.038 19.295 140.414 17.7397 140.414 13.8186C140.415 7.70415 138.963 5.47181 134.815 5.20753L132.728 5.07473V23.202ZM50.1756 7.29366C49.5243 8.96996 47.3594 15.3975 47.3594 15.6539C47.3594 15.8139 48.6998 15.9447 50.3381 15.9447C52.8796 15.9447 53.2887 15.8711 53.1245 15.4433C52.928 14.9314 50.6351 7.52949 50.4984 6.96658C50.4572 6.79551 50.3116 6.9427 50.1756 7.29366Z" fill="white"/>
</svg>
