<svg width="79" height="79" viewBox="0 0 79 79" fill="none" xmlns="http://www.w3.org/2000/svg">
<path fill-rule="evenodd" clip-rule="evenodd" d="M73.64 39.82C73.64 49.8618 69.2635 58.8815 62.3138 65.0756C59.9313 54.8565 50.7647 47.2439 39.82 47.2439C28.8753 47.2439 19.7087 54.8565 17.3262 65.0756C10.3765 58.8815 6 49.8618 6 39.82C6 21.1417 21.1417 6 39.82 6C58.4983 6 73.64 21.1417 73.64 39.82ZM39.4076 44.7693C45.1022 44.7693 49.7185 40.1529 49.7185 34.4583C49.7185 28.7637 45.1022 24.1473 39.4076 24.1473C33.713 24.1473 29.0966 28.7637 29.0966 34.4583C29.0966 40.1529 33.713 44.7693 39.4076 44.7693Z" fill="#321640"/>
<circle cx="39.7541" cy="39.5317" r="37.5775" stroke="#D5B8E4" stroke-width="3.22093"/>
</svg>
