<svg width="179" height="179" viewBox="0 0 179 179" fill="none" xmlns="http://www.w3.org/2000/svg">
<rect x="0.147461" y="150.029" width="178.379" height="28.8211" rx="6.23158" fill="#D5B8E4"/>
<circle cx="7.54746" cy="88.1031" r="7.4" fill="#D5B8E4"/>
<path d="M6.4762 89.5918L4.98743 88.103L4.48047 88.6064L6.4762 90.6021L10.7604 86.3179L10.257 85.8145L6.4762 89.5918Z" fill="#502466"/>
<circle cx="7.54746" cy="63.9557" r="7.4" fill="#D5B8E4"/>
<path d="M6.4762 65.4433L4.98743 63.9545L4.48047 64.4579L6.4762 66.4536L10.7604 62.1694L10.257 61.666L6.4762 65.4433Z" fill="#502466"/>
<circle cx="7.54746" cy="112.25" r="7.4" fill="#D5B8E4"/>
<path d="M6.4762 113.738L4.98743 112.249L4.48047 112.753L6.4762 114.749L10.7604 110.464L10.257 109.961L6.4762 113.738Z" fill="#502466"/>
<rect x="0.147461" y="0.470703" width="121.516" height="8.56842" rx="4.28421" fill="#20484F" fill-opacity="0.1"/>
<rect x="0.147461" y="18.3867" width="141.768" height="8.56842" rx="4.28421" fill="#20484F" fill-opacity="0.1"/>
<rect x="25.8533" y="83.8184" width="62.3158" height="8.56842" rx="4.28421" fill="#20484F" fill-opacity="0.1"/>
<rect x="25.8533" y="107.966" width="103.6" height="8.56842" rx="4.28421" fill="#20484F" fill-opacity="0.1"/>
<rect x="25.8533" y="59.6709" width="62.3158" height="8.56842" rx="4.28421" fill="#20484F" fill-opacity="0.1"/>
</svg>
